<svg width="170" height="164" viewBox="0 0 170 164" fill="none" xmlns="http://www.w3.org/2000/svg">
<g clip-path="url(#clip0_40_3)">
<path d="M8 4C8 6.20914 6.20914 8 4 8C1.79086 8 0 6.20914 0 4C0 1.79086 1.79086 0 4 0C6.20914 0 8 1.79086 8 4Z" fill="#98A0A9"/>
<path d="M35 4C35 6.20914 33.2091 8 31 8C28.7909 8 27 6.20914 27 4C27 1.79086 28.7909 0 31 0C33.2091 0 35 1.79086 35 4Z" fill="#98A0A9"/>
<path d="M62 4C62 6.20914 60.2091 8 58 8C55.7909 8 54 6.20914 54 4C54 1.79086 55.7909 0 58 0C60.2091 0 62 1.79086 62 4Z" fill="#98A0A9"/>
<path d="M89 4C89 6.20914 87.2091 8 85 8C82.7909 8 81 6.20914 81 4C81 1.79086 82.7909 0 85 0C87.2091 0 89 1.79086 89 4Z" fill="#98A0A9"/>
<path d="M116 4C116 6.20914 114.209 8 112 8C109.791 8 108 6.20914 108 4C108 1.79086 109.791 0 112 0C114.209 0 116 1.79086 116 4Z" fill="#98A0A9"/>
<path d="M143 4C143 6.20914 141.209 8 139 8C136.791 8 135 6.20914 135 4C135 1.79086 136.791 0 139 0C141.209 0 143 1.79086 143 4Z" fill="#98A0A9"/>
<path d="M170 4C170 6.20914 168.209 8 166 8C163.791 8 162 6.20914 162 4C162 1.79086 163.791 0 166 0C168.209 0 170 1.79086 170 4Z" fill="#98A0A9"/>
<path d="M8 30C8 32.2091 6.20914 34 4 34C1.79086 34 0 32.2091 0 30C0 27.7909 1.79086 26 4 26C6.20914 26 8 27.7909 8 30Z" fill="#98A0A9"/>
<path d="M35 30C35 32.2091 33.2091 34 31 34C28.7909 34 27 32.2091 27 30C27 27.7909 28.7909 26 31 26C33.2091 26 35 27.7909 35 30Z" fill="#98A0A9"/>
<path d="M62 30C62 32.2091 60.2091 34 58 34C55.7909 34 54 32.2091 54 30C54 27.7909 55.7909 26 58 26C60.2091 26 62 27.7909 62 30Z" fill="#98A0A9"/>
<path d="M89 30C89 32.2091 87.2091 34 85 34C82.7909 34 81 32.2091 81 30C81 27.7909 82.7909 26 85 26C87.2091 26 89 27.7909 89 30Z" fill="#98A0A9"/>
<path d="M116 30C116 32.2091 114.209 34 112 34C109.791 34 108 32.2091 108 30C108 27.7909 109.791 26 112 26C114.209 26 116 27.7909 116 30Z" fill="#98A0A9"/>
<path d="M143 30C143 32.2091 141.209 34 139 34C136.791 34 135 32.2091 135 30C135 27.7909 136.791 26 139 26C141.209 26 143 27.7909 143 30Z" fill="#98A0A9"/>
<path d="M170 30C170 32.2091 168.209 34 166 34C163.791 34 162 32.2091 162 30C162 27.7909 163.791 26 166 26C168.209 26 170 27.7909 170 30Z" fill="#98A0A9"/>
<path d="M8 56C8 58.2091 6.20914 60 4 60C1.79086 60 0 58.2091 0 56C0 53.7909 1.79086 52 4 52C6.20914 52 8 53.7909 8 56Z" fill="#98A0A9"/>
<path d="M35 56C35 58.2091 33.2091 60 31 60C28.7909 60 27 58.2091 27 56C27 53.7909 28.7909 52 31 52C33.2091 52 35 53.7909 35 56Z" fill="#98A0A9"/>
<path d="M62 56C62 58.2091 60.2091 60 58 60C55.7909 60 54 58.2091 54 56C54 53.7909 55.7909 52 58 52C60.2091 52 62 53.7909 62 56Z" fill="#98A0A9"/>
<path d="M89 56C89 58.2091 87.2091 60 85 60C82.7909 60 81 58.2091 81 56C81 53.7909 82.7909 52 85 52C87.2091 52 89 53.7909 89 56Z" fill="#98A0A9"/>
<path d="M116 56C116 58.2091 114.209 60 112 60C109.791 60 108 58.2091 108 56C108 53.7909 109.791 52 112 52C114.209 52 116 53.7909 116 56Z" fill="#98A0A9"/>
<path d="M143 56C143 58.2091 141.209 60 139 60C136.791 60 135 58.2091 135 56C135 53.7909 136.791 52 139 52C141.209 52 143 53.7909 143 56Z" fill="#98A0A9"/>
<path d="M170 56C170 58.2091 168.209 60 166 60C163.791 60 162 58.2091 162 56C162 53.7909 163.791 52 166 52C168.209 52 170 53.7909 170 56Z" fill="#98A0A9"/>
<path d="M8 82C8 84.2091 6.20914 86 4 86C1.79086 86 0 84.2091 0 82C0 79.7909 1.79086 78 4 78C6.20914 78 8 79.7909 8 82Z" fill="#98A0A9"/>
<path d="M35 82C35 84.2091 33.2091 86 31 86C28.7909 86 27 84.2091 27 82C27 79.7909 28.7909 78 31 78C33.2091 78 35 79.7909 35 82Z" fill="#98A0A9"/>
<path d="M62 82C62 84.2091 60.2091 86 58 86C55.7909 86 54 84.2091 54 82C54 79.7909 55.7909 78 58 78C60.2091 78 62 79.7909 62 82Z" fill="#98A0A9"/>
<path d="M89 82C89 84.2091 87.2091 86 85 86C82.7909 86 81 84.2091 81 82C81 79.7909 82.7909 78 85 78C87.2091 78 89 79.7909 89 82Z" fill="#98A0A9"/>
<path d="M116 82C116 84.2091 114.209 86 112 86C109.791 86 108 84.2091 108 82C108 79.7909 109.791 78 112 78C114.209 78 116 79.7909 116 82Z" fill="#98A0A9"/>
<path d="M143 82C143 84.2091 141.209 86 139 86C136.791 86 135 84.2091 135 82C135 79.7909 136.791 78 139 78C141.209 78 143 79.7909 143 82Z" fill="#98A0A9"/>
<path d="M170 82C170 84.2091 168.209 86 166 86C163.791 86 162 84.2091 162 82C162 79.7909 163.791 78 166 78C168.209 78 170 79.7909 170 82Z" fill="#98A0A9"/>
<path d="M8 108C8 110.209 6.20914 112 4 112C1.79086 112 0 110.209 0 108C0 105.791 1.79086 104 4 104C6.20914 104 8 105.791 8 108Z" fill="#98A0A9"/>
<path d="M35 108C35 110.209 33.2091 112 31 112C28.7909 112 27 110.209 27 108C27 105.791 28.7909 104 31 104C33.2091 104 35 105.791 35 108Z" fill="#98A0A9"/>
<path d="M62 108C62 110.209 60.2091 112 58 112C55.7909 112 54 110.209 54 108C54 105.791 55.7909 104 58 104C60.2091 104 62 105.791 62 108Z" fill="#98A0A9"/>
<path d="M89 108C89 110.209 87.2091 112 85 112C82.7909 112 81 110.209 81 108C81 105.791 82.7909 104 85 104C87.2091 104 89 105.791 89 108Z" fill="#98A0A9"/>
<path d="M116 108C116 110.209 114.209 112 112 112C109.791 112 108 110.209 108 108C108 105.791 109.791 104 112 104C114.209 104 116 105.791 116 108Z" fill="#98A0A9"/>
<path d="M143 108C143 110.209 141.209 112 139 112C136.791 112 135 110.209 135 108C135 105.791 136.791 104 139 104C141.209 104 143 105.791 143 108Z" fill="#98A0A9"/>
<path d="M170 108C170 110.209 168.209 112 166 112C163.791 112 162 110.209 162 108C162 105.791 163.791 104 166 104C168.209 104 170 105.791 170 108Z" fill="#98A0A9"/>
<path d="M8 134C8 136.209 6.20914 138 4 138C1.79086 138 0 136.209 0 134C0 131.791 1.79086 130 4 130C6.20914 130 8 131.791 8 134Z" fill="#98A0A9"/>
<path d="M35 134C35 136.209 33.2091 138 31 138C28.7909 138 27 136.209 27 134C27 131.791 28.7909 130 31 130C33.2091 130 35 131.791 35 134Z" fill="#98A0A9"/>
<path d="M62 134C62 136.209 60.2091 138 58 138C55.7909 138 54 136.209 54 134C54 131.791 55.7909 130 58 130C60.2091 130 62 131.791 62 134Z" fill="#98A0A9"/>
<path d="M89 134C89 136.209 87.2091 138 85 138C82.7909 138 81 136.209 81 134C81 131.791 82.7909 130 85 130C87.2091 130 89 131.791 89 134Z" fill="#98A0A9"/>
<path d="M116 134C116 136.209 114.209 138 112 138C109.791 138 108 136.209 108 134C108 131.791 109.791 130 112 130C114.209 130 116 131.791 116 134Z" fill="#98A0A9"/>
<path d="M143 134C143 136.209 141.209 138 139 138C136.791 138 135 136.209 135 134C135 131.791 136.791 130 139 130C141.209 130 143 131.791 143 134Z" fill="#98A0A9"/>
<path d="M170 134C170 136.209 168.209 138 166 138C163.791 138 162 136.209 162 134C162 131.791 163.791 130 166 130C168.209 130 170 131.791 170 134Z" fill="#98A0A9"/>
<path d="M8 160C8 162.209 6.20914 164 4 164C1.79086 164 0 162.209 0 160C0 157.791 1.79086 156 4 156C6.20914 156 8 157.791 8 160Z" fill="#98A0A9"/>
<path d="M35 160C35 162.209 33.2091 164 31 164C28.7909 164 27 162.209 27 160C27 157.791 28.7909 156 31 156C33.2091 156 35 157.791 35 160Z" fill="#98A0A9"/>
<path d="M62 160C62 162.209 60.2091 164 58 164C55.7909 164 54 162.209 54 160C54 157.791 55.7909 156 58 156C60.2091 156 62 157.791 62 160Z" fill="#98A0A9"/>
<path d="M89 160C89 162.209 87.2091 164 85 164C82.7909 164 81 162.209 81 160C81 157.791 82.7909 156 85 156C87.2091 156 89 157.791 89 160Z" fill="#98A0A9"/>
<path d="M116 160C116 162.209 114.209 164 112 164C109.791 164 108 162.209 108 160C108 157.791 109.791 156 112 156C114.209 156 116 157.791 116 160Z" fill="#98A0A9"/>
<path d="M143 160C143 162.209 141.209 164 139 164C136.791 164 135 162.209 135 160C135 157.791 136.791 156 139 156C141.209 156 143 157.791 143 160Z" fill="#98A0A9"/>
<path d="M170 160C170 162.209 168.209 164 166 164C163.791 164 162 162.209 162 160C162 157.791 163.791 156 166 156C168.209 156 170 157.791 170 160Z" fill="#98A0A9"/>
</g>
<defs>
<clipPath id="clip0_40_3">
<rect width="170" height="164" fill="white"/>
</clipPath>
</defs>
</svg>
