<svg width="22" height="22" viewBox="0 0 22 22" fill="none" xmlns="http://www.w3.org/2000/svg">
<path d="M20.9937 5.96146C20.7538 5.05816 20.047 4.34675 19.1495 4.10533C17.5228 3.66663 11 3.66663 11 3.66663C11 3.66663 4.47711 3.66663 2.85037 4.10533C1.95291 4.34679 1.24609 5.05816 1.00619 5.96146C0.570312 7.59874 0.570312 11.0148 0.570312 11.0148C0.570312 11.0148 0.570312 14.4308 1.00619 16.0681C1.24609 16.9714 1.95291 17.6532 2.85037 17.8946C4.47711 18.3333 11 18.3333 11 18.3333C11 18.3333 17.5228 18.3333 19.1495 17.8946C20.047 17.6532 20.7538 16.9714 20.9937 16.0681C21.4296 14.4308 21.4296 11.0148 21.4296 11.0148C21.4296 11.0148 21.4296 7.59874 20.9937 5.96146V5.96146ZM8.8666 14.1163V7.91328L14.3184 11.0149L8.8666 14.1163V14.1163Z" fill="#F2F2F2"/>
</svg>
